<svg version="1.1" xmlns="http://www.w3.org/2000/svg" xmlns:xlink="http://www.w3.org/1999/xlink" width="1277.5888671875" height="636"><defs/><g><g transform="translate(-346,-101) scale(1,1)"><path fill="none" stroke="#000000" d="M 502 152 L 847 351" stroke-miterlimit="10"/></g><g transform="translate(-346,-101) scale(1,1)"><path fill="#FFFFFF" stroke="none" d="M 836.0935272126947 349.5686190794313 L 847 351 L 840.300098288665 342.2758199778747 L 827.9429975672448 340.00770004603396"/></g><g transform="translate(-346,-101) scale(1,1)"><path fill="none" stroke="#000000" d="M 836.0935272126947 349.5686190794313 L 847 351 L 840.300098288665 342.2758199778747 L 827.9429975672448 340.00770004603396 L 836.0935272126947 349.5686190794313" stroke-miterlimit="10"/></g><g transform="translate(-346,-101) scale(1,1)"><g><path fill="none" stroke="none"/><text fill="#000000" stroke="none" font-family="Arial" font-size="13px" font-style="normal" font-weight="normal" text-decoration="none" x="709.5" y="268.5">-leftPlaylistComponent</text></g></g><g transform="translate(-346,-101) scale(1,1)"><path fill="none" stroke="#000000" d="M 1465 152 L 1116 351" stroke-miterlimit="10"/></g><g transform="translate(-346,-101) scale(1,1)"><path fill="#FFFFFF" stroke="none" d="M 1122.7432194367282 342.30925828089846 L 1116 351 L 1126.9134585938568 349.6228937876218 L 1135.1114505833793 340.1026399252364"/></g><g transform="translate(-346,-101) scale(1,1)"><path fill="none" stroke="#000000" d="M 1122.7432194367282 342.30925828089846 L 1116 351 L 1126.9134585938568 349.6228937876218 L 1135.1114505833793 340.1026399252364 L 1122.7432194367282 342.30925828089846" stroke-miterlimit="10"/></g><g transform="translate(-346,-101) scale(1,1)"><g><path fill="none" stroke="none"/><text fill="#000000" stroke="none" font-family="Arial" font-size="13px" font-style="normal" font-weight="normal" text-decoration="none" x="1101.5" y="269.5">-rightPlaylistComponent</text></g></g><g transform="translate(-346,-101) scale(1,1)"><rect fill="#C0C0C0" stroke="none" x="738" y="359" width="500.72119140625" height="152" opacity="0.2"/></g><g transform="translate(-346,-101) scale(1,1)"><rect fill="#ffffff" stroke="none" x="731" y="352" width="500.72119140625" height="152"/></g><g transform="translate(-346,-101) scale(1,1)"><path fill="none" stroke="#000000" d="M 731 352 L 1231.72119140625 352 L 1231.72119140625 504 L 731 504 L 731 352 Z Z" stroke-miterlimit="10"/></g><g transform="translate(-346,-101) scale(1,1)"><path fill="none" stroke="#000000" d="M 731 392 L 1231.72119140625 392" stroke-miterlimit="10"/></g><g transform="translate(-346,-101) scale(1,1)"><path fill="none" stroke="#000000" d="M 731 462 L 1231.72119140625 462" stroke-miterlimit="10"/></g><g transform="translate(-346,-101) scale(1,1)"><g><path fill="none" stroke="none"/><text fill="#000000" stroke="none" font-family="Arial" font-size="13px" font-style="normal" font-weight="bold" text-decoration="none" x="933.66748046875" y="371.5">MainComponent</text></g></g><g transform="translate(-346,-101) scale(1,1)"><g><path fill="none" stroke="none"/><text fill="#000000" stroke="none" font-family="Arial" font-size="13px" font-style="normal" font-weight="normal" text-decoration="none" x="933.689697265625" y="386.5">(from OtoDecks)</text></g></g><g transform="translate(-346,-101) scale(1,1)"><g><path fill="none" stroke="none"/><text fill="#000000" stroke="none" font-family="Arial" font-size="13px" font-style="normal" font-weight="normal" text-decoration="none" x="736" y="411.5">-trackSelectedToPlayLeftListener: ExternalCallbackActionListener</text></g></g><g transform="translate(-346,-101) scale(1,1)"><g><path fill="none" stroke="none"/><text fill="#000000" stroke="none" font-family="Arial" font-size="13px" font-style="normal" font-weight="normal" text-decoration="none" x="736" y="426.5">-trackSelectedToPlayRightListener: ExternalCallbackActionListener</text></g></g><g transform="translate(-346,-101) scale(1,1)"><g><path fill="none" stroke="none"/><text fill="#000000" stroke="none" font-family="Arial" font-size="13px" font-style="normal" font-weight="normal" text-decoration="none" x="736" y="441.5">-leftVolumeChangedListener: ExternalCallbackActionListener</text></g></g><g transform="translate(-346,-101) scale(1,1)"><g><path fill="none" stroke="none"/><text fill="#000000" stroke="none" font-family="Arial" font-size="13px" font-style="normal" font-weight="normal" text-decoration="none" x="736" y="456.5">-rightVolumeChangedListener: ExternalCallbackActionListener</text></g></g><g transform="translate(-346,-101) scale(1,1)"><g><path fill="none" stroke="none"/><text fill="#000000" stroke="none" font-family="Arial" font-size="13px" font-style="normal" font-weight="normal" text-decoration="none" x="736" y="479.5">-trackSelectedToPlayCallback(message: String, player: PlayerAggregateComponent)</text></g></g><g transform="translate(-346,-101) scale(1,1)"><g><path fill="none" stroke="none"/><text fill="#000000" stroke="none" font-family="Arial" font-size="13px" font-style="normal" font-weight="normal" text-decoration="none" x="736" y="494.5">-volumeChangedCallback(message: String, player: volumeChangedCallback)</text></g></g><g transform="translate(-346,-101) scale(1,1)"><rect fill="#C0C0C0" stroke="none" x="783" y="135" width="407.759765625" height="102" opacity="0.2"/></g><g transform="translate(-346,-101) scale(1,1)"><rect fill="#ffffff" stroke="none" x="776" y="128" width="407.759765625" height="102"/></g><g transform="translate(-346,-101) scale(1,1)"><path fill="none" stroke="#000000" d="M 776 128 L 1183.759765625 128 L 1183.759765625 230 L 776 230 L 776 128 Z Z" stroke-miterlimit="10"/></g><g transform="translate(-346,-101) scale(1,1)"><path fill="none" stroke="#000000" d="M 776 168 L 1183.759765625 168" stroke-miterlimit="10"/></g><g transform="translate(-346,-101) scale(1,1)"><g><path fill="none" stroke="none"/><text fill="#000000" stroke="none" font-family="Arial" font-size="13px" font-style="italic" font-weight="bold" text-decoration="none" x="918.08544921875" y="147.5">AudioAppComponent</text></g></g><g transform="translate(-346,-101) scale(1,1)"><g><path fill="none" stroke="none"/><text fill="#000000" stroke="none" font-family="Arial" font-size="13px" font-style="normal" font-weight="normal" text-decoration="none" x="947.014892578125" y="162.5">(from Juce)</text></g></g><g transform="translate(-346,-101) scale(1,1)"><g><path fill="none" stroke="none"/><text fill="#000000" stroke="none" font-family="Arial" font-size="13px" font-style="italic" font-weight="normal" text-decoration="none" x="781" y="185.5">+prepareToPlay(samplesPerBlockExpected: int, sampleRate: double)</text></g></g><g transform="translate(-346,-101) scale(1,1)"><g><path fill="none" stroke="none"/><text fill="#000000" stroke="none" font-family="Arial" font-size="13px" font-style="italic" font-weight="normal" text-decoration="none" x="781" y="200.5">+releaseResources()</text></g></g><g transform="translate(-346,-101) scale(1,1)"><g><path fill="none" stroke="none"/><text fill="#000000" stroke="none" font-family="Arial" font-size="13px" font-style="italic" font-weight="normal" text-decoration="none" x="781" y="215.5">+getNextAudioBlock(bufferToFill: AudioSourceChannelInfo)</text></g></g><g transform="translate(-346,-101) scale(1,1)"><path fill="none" stroke="#000000" d="M 980 351 L 979 231" stroke-miterlimit="10"/></g><g transform="translate(-346,-101) scale(1,1)"><path fill="#FFFFFF" stroke="none" d="M 987.588115233057 251.2544878173637 L 979 231 L 970.7506288337879 251.39480020402428"/></g><g transform="translate(-346,-101) scale(1,1)"><path fill="none" stroke="#000000" d="M 987.588115233057 251.2544878173637 L 979 231 L 970.7506288337879 251.39480020402428 L 987.588115233057 251.2544878173637" stroke-miterlimit="10"/></g><g transform="translate(-346,-101) scale(1,1)"><rect fill="#C0C0C0" stroke="none" x="879" y="695" width="143.341796875" height="39" opacity="0.2"/></g><g transform="translate(-346,-101) scale(1,1)"><rect fill="#ffffff" stroke="none" x="872" y="688" width="143.341796875" height="39"/></g><g transform="translate(-346,-101) scale(1,1)"><path fill="none" stroke="#000000" d="M 872 688 L 1015.341796875 688 L 1015.341796875 727 L 872 727 L 872 688 Z Z" stroke-miterlimit="10"/></g><g transform="translate(-346,-101) scale(1,1)"><g><path fill="none" stroke="none"/><text fill="#000000" stroke="none" font-family="Arial" font-size="13px" font-style="normal" font-weight="bold" text-decoration="none" x="880.806884765625" y="707.5">AudioFormatManager</text></g></g><g transform="translate(-346,-101) scale(1,1)"><g><path fill="none" stroke="none"/><text fill="#000000" stroke="none" font-family="Arial" font-size="13px" font-style="normal" font-weight="normal" text-decoration="none" x="910.805908203125" y="722.5">(from Juce)</text></g></g><g transform="translate(-346,-101) scale(1,1)"><path fill="none" stroke="#000000" d="M 946 687 L 971 505" stroke-miterlimit="10"/></g><g transform="translate(-346,-101) scale(1,1)"><path fill="#FFFFFF" stroke="none" d="M 973.7873720665569 515.6409847740977 L 971 505 L 965.4466571976851 514.4952821822196 L 968.0061348493787 526.7953382965233"/></g><g transform="translate(-346,-101) scale(1,1)"><path fill="none" stroke="#000000" d="M 973.7873720665569 515.6409847740977 L 971 505 L 965.4466571976851 514.4952821822196 L 968.0061348493787 526.7953382965233 L 973.7873720665569 515.6409847740977" stroke-miterlimit="10"/></g><g transform="translate(-346,-101) scale(1,1)"><g><path fill="none" stroke="none"/><text fill="#000000" stroke="none" font-family="Arial" font-size="13px" font-style="normal" font-weight="normal" text-decoration="none" x="914.5" y="636.5">-formatManager</text></g></g><g transform="translate(-346,-101) scale(1,1)"><rect fill="#C0C0C0" stroke="none" x="719" y="695" width="150.55908203125" height="39" opacity="0.2"/></g><g transform="translate(-346,-101) scale(1,1)"><rect fill="#ffffff" stroke="none" x="712" y="688" width="150.55908203125" height="39"/></g><g transform="translate(-346,-101) scale(1,1)"><path fill="none" stroke="#000000" d="M 712 688 L 862.55908203125 688 L 862.55908203125 727 L 712 727 L 712 688 Z Z" stroke-miterlimit="10"/></g><g transform="translate(-346,-101) scale(1,1)"><g><path fill="none" stroke="none"/><text fill="#000000" stroke="none" font-family="Arial" font-size="13px" font-style="normal" font-weight="bold" text-decoration="none" x="721.517822265625" y="707.5">AudioThumbnailCache</text></g></g><g transform="translate(-346,-101) scale(1,1)"><g><path fill="none" stroke="none"/><text fill="#000000" stroke="none" font-family="Arial" font-size="13px" font-style="normal" font-weight="normal" text-decoration="none" x="754.41455078125" y="722.5">(from Juce)</text></g></g><g transform="translate(-346,-101) scale(1,1)"><path fill="none" stroke="#000000" d="M 801 687 L 927 505" stroke-miterlimit="10"/></g><g transform="translate(-346,-101) scale(1,1)"><path fill="#FFFFFF" stroke="none" d="M 924.6763366890146 515.7517714269408 L 927 505 L 917.7542714298503 510.95957240136545 L 914.4773804657332 523.0882282161631"/></g><g transform="translate(-346,-101) scale(1,1)"><path fill="none" stroke="#000000" d="M 924.6763366890146 515.7517714269408 L 927 505 L 917.7542714298503 510.95957240136545 L 914.4773804657332 523.0882282161631 L 924.6763366890146 515.7517714269408" stroke-miterlimit="10"/></g><g transform="translate(-346,-101) scale(1,1)"><g><path fill="none" stroke="none"/><text fill="#000000" stroke="none" font-family="Arial" font-size="13px" font-style="normal" font-weight="normal" text-decoration="none" x="802.5" y="635.5">-thumbCache</text></g></g><g transform="translate(-346,-101) scale(1,1)"><rect fill="#C0C0C0" stroke="none" x="1031" y="695" width="123.8544921875" height="39" opacity="0.2"/></g><g transform="translate(-346,-101) scale(1,1)"><rect fill="#ffffff" stroke="none" x="1024" y="688" width="123.8544921875" height="39"/></g><g transform="translate(-346,-101) scale(1,1)"><path fill="none" stroke="#000000" d="M 1024 688 L 1147.8544921875 688 L 1147.8544921875 727 L 1024 727 L 1024 688 Z Z" stroke-miterlimit="10"/></g><g transform="translate(-346,-101) scale(1,1)"><g><path fill="none" stroke="none"/><text fill="#000000" stroke="none" font-family="Arial" font-size="13px" font-style="normal" font-weight="bold" text-decoration="none" x="1032.819580078125" y="707.5">MixerAudioSource</text></g></g><g transform="translate(-346,-101) scale(1,1)"><g><path fill="none" stroke="none"/><text fill="#000000" stroke="none" font-family="Arial" font-size="13px" font-style="normal" font-weight="normal" text-decoration="none" x="1053.062255859375" y="722.5">(from Juce)</text></g></g><g transform="translate(-346,-101) scale(1,1)"><path fill="none" stroke="#000000" d="M 1078 687 L 1010 505" stroke-miterlimit="10"/></g><g transform="translate(-346,-101) scale(1,1)"><path fill="#FFFFFF" stroke="none" d="M 1017.5001584331026 513.046590798491 L 1010 505 L 1009.6136139689739 515.9932118070666 L 1017.6998917626629 525.6085338353624"/></g><g transform="translate(-346,-101) scale(1,1)"><path fill="none" stroke="#000000" d="M 1017.5001584331026 513.046590798491 L 1010 505 L 1009.6136139689739 515.9932118070666 L 1017.6998917626629 525.6085338353624 L 1017.5001584331026 513.046590798491" stroke-miterlimit="10"/></g><g transform="translate(-346,-101) scale(1,1)"><g><path fill="none" stroke="none"/><text fill="#000000" stroke="none" font-family="Arial" font-size="13px" font-style="normal" font-weight="normal" text-decoration="none" x="1046.5" y="639.5">+mixerSource</text></g></g><g transform="translate(-346,-101) scale(1,1)"><rect fill="#C0C0C0" stroke="none" x="1167" y="695" width="101.0537109375" height="39" opacity="0.2"/></g><g transform="translate(-346,-101) scale(1,1)"><rect fill="#ffffff" stroke="none" x="1160" y="688" width="101.0537109375" height="39"/></g><g transform="translate(-346,-101) scale(1,1)"><path fill="none" stroke="#000000" d="M 1160 688 L 1261.0537109375 688 L 1261.0537109375 727 L 1160 727 L 1160 688 Z Z" stroke-miterlimit="10"/></g><g transform="translate(-346,-101) scale(1,1)"><g><path fill="none" stroke="none"/><text fill="#000000" stroke="none" font-family="Arial" font-size="13px" font-style="normal" font-weight="bold" text-decoration="none" x="1168.61962890625" y="707.5">TooltipWindow</text></g></g><g transform="translate(-346,-101) scale(1,1)"><g><path fill="none" stroke="none"/><text fill="#000000" stroke="none" font-family="Arial" font-size="13px" font-style="normal" font-weight="normal" text-decoration="none" x="1177.661865234375" y="722.5">(from Juce)</text></g></g><g transform="translate(-346,-101) scale(1,1)"><path fill="none" stroke="#000000" d="M 1194 687 L 1044 505" stroke-miterlimit="10"/></g><g transform="translate(-346,-101) scale(1,1)"><path fill="#FFFFFF" stroke="none" d="M 1053.7119297463832 510.16511573939226 L 1044 505 L 1047.2150830171372 515.5196597470125 L 1057.9920977883148 521.9770786498219"/></g><g transform="translate(-346,-101) scale(1,1)"><path fill="none" stroke="#000000" d="M 1053.7119297463832 510.16511573939226 L 1044 505 L 1047.2150830171372 515.5196597470125 L 1057.9920977883148 521.9770786498219 L 1053.7119297463832 510.16511573939226" stroke-miterlimit="10"/></g><g transform="translate(-346,-101) scale(1,1)"><g><path fill="none" stroke="none"/><text fill="#000000" stroke="none" font-family="Arial" font-size="13px" font-style="normal" font-weight="normal" text-decoration="none" x="1171.5" y="641.5">-tooltipWindow</text></g></g><g transform="translate(-346,-101) scale(1,1)"><rect fill="#C0C0C0" stroke="none" x="363" y="608" width="221.5888671875" height="39" opacity="0.2"/></g><g transform="translate(-346,-101) scale(1,1)"><rect fill="#ffffff" stroke="none" x="356" y="601" width="221.5888671875" height="39"/></g><g transform="translate(-346,-101) scale(1,1)"><path fill="none" stroke="#000000" d="M 356 601 L 577.5888671875 601 L 577.5888671875 640 L 356 640 L 356 601 Z Z" stroke-miterlimit="10"/></g><g transform="translate(-346,-101) scale(1,1)"><g><path fill="none" stroke="none"/><text fill="#000000" stroke="none" font-family="Arial" font-size="13px" font-style="normal" font-weight="bold" text-decoration="none" x="442.47021484375" y="620.5">VuMeter</text></g></g><g transform="translate(-346,-101) scale(1,1)"><g><path fill="none" stroke="none"/><text fill="#000000" stroke="none" font-family="Arial" font-size="13px" font-style="normal" font-weight="normal" text-decoration="none" x="431.771240234375" y="635.5">(from Mixer)</text></g></g><g transform="translate(-346,-101) scale(1,1)"><rect fill="#C0C0C0" stroke="none" x="1399" y="607" width="221.5888671875" height="40" opacity="0.2"/></g><g transform="translate(-346,-101) scale(1,1)"><rect fill="#ffffff" stroke="none" x="1392" y="600" width="221.5888671875" height="40"/></g><g transform="translate(-346,-101) scale(1,1)"><path fill="none" stroke="#000000" d="M 1392 600 L 1613.5888671875 600 L 1613.5888671875 640 L 1392 640 L 1392 600 Z Z" stroke-miterlimit="10"/></g><g transform="translate(-346,-101) scale(1,1)"><g><path fill="none" stroke="none"/><text fill="#000000" stroke="none" font-family="Arial" font-size="13px" font-style="normal" font-weight="bold" text-decoration="none" x="1478.47021484375" y="619.5">VuMeter</text></g></g><g transform="translate(-346,-101) scale(1,1)"><g><path fill="none" stroke="none"/><text fill="#000000" stroke="none" font-family="Arial" font-size="13px" font-style="normal" font-weight="normal" text-decoration="none" x="1467.771240234375" y="634.5">(from Mixer)</text></g></g><g transform="translate(-346,-101) scale(1,1)"><path fill="none" stroke="#000000" d="M 520 600 L 774 505" stroke-miterlimit="10"/></g><g transform="translate(-346,-101) scale(1,1)"><path fill="#FFFFFF" stroke="none" d="M 765.9559719783234 512.5029069823956 L 774 505 L 763.006656831954 504.61736964368174 L 753.3940979101731 512.7069318839904"/></g><g transform="translate(-346,-101) scale(1,1)"><path fill="none" stroke="#000000" d="M 765.9559719783234 512.5029069823956 L 774 505 L 763.006656831954 504.61736964368174 L 753.3940979101731 512.7069318839904 L 765.9559719783234 512.5029069823956" stroke-miterlimit="10"/></g><g transform="translate(-346,-101) scale(1,1)"><g><path fill="none" stroke="none"/><text fill="#000000" stroke="none" font-family="Arial" font-size="13px" font-style="normal" font-weight="normal" text-decoration="none" x="630.5" y="524.5">-leftVuMeter</text></g></g><g transform="translate(-346,-101) scale(1,1)"><path fill="none" stroke="#000000" d="M 1445 599 L 1190 505" stroke-miterlimit="10"/></g><g transform="translate(-346,-101) scale(1,1)"><path fill="#FFFFFF" stroke="none" d="M 1200.9914080191927 504.5653164879726 L 1190 505 L 1198.0794668041838 512.4647314861347 L 1210.6421661615752 512.6092690948552"/></g><g transform="translate(-346,-101) scale(1,1)"><path fill="none" stroke="#000000" d="M 1200.9914080191927 504.5653164879726 L 1190 505 L 1198.0794668041838 512.4647314861347 L 1210.6421661615752 512.6092690948552 L 1200.9914080191927 504.5653164879726" stroke-miterlimit="10"/></g><g transform="translate(-346,-101) scale(1,1)"><g><path fill="none" stroke="none"/><text fill="#000000" stroke="none" font-family="Arial" font-size="13px" font-style="normal" font-weight="normal" text-decoration="none" x="1254.5" y="523.5">-rightVuMeter</text></g></g><g transform="translate(-346,-101) scale(1,1)"><rect fill="#C0C0C0" stroke="none" x="363" y="688" width="221.5888671875" height="39" opacity="0.2"/></g><g transform="translate(-346,-101) scale(1,1)"><rect fill="#ffffff" stroke="none" x="356" y="681" width="221.5888671875" height="39"/></g><g transform="translate(-346,-101) scale(1,1)"><path fill="none" stroke="#000000" d="M 356 681 L 577.5888671875 681 L 577.5888671875 720 L 356 720 L 356 681 Z Z" stroke-miterlimit="10"/></g><g transform="translate(-346,-101) scale(1,1)"><g><path fill="none" stroke="none"/><text fill="#000000" stroke="none" font-family="Arial" font-size="13px" font-style="normal" font-weight="bold" text-decoration="none" x="426.693115234375" y="700.5">MixerChannel</text></g></g><g transform="translate(-346,-101) scale(1,1)"><g><path fill="none" stroke="none"/><text fill="#000000" stroke="none" font-family="Arial" font-size="13px" font-style="normal" font-weight="normal" text-decoration="none" x="431.771240234375" y="715.5">(from Mixer)</text></g></g><g transform="translate(-346,-101) scale(1,1)"><rect fill="#C0C0C0" stroke="none" x="1399" y="687" width="221.5888671875" height="40" opacity="0.2"/></g><g transform="translate(-346,-101) scale(1,1)"><rect fill="#ffffff" stroke="none" x="1392" y="680" width="221.5888671875" height="40"/></g><g transform="translate(-346,-101) scale(1,1)"><path fill="none" stroke="#000000" d="M 1392 680 L 1613.5888671875 680 L 1613.5888671875 720 L 1392 720 L 1392 680 Z Z" stroke-miterlimit="10"/></g><g transform="translate(-346,-101) scale(1,1)"><g><path fill="none" stroke="none"/><text fill="#000000" stroke="none" font-family="Arial" font-size="13px" font-style="normal" font-weight="bold" text-decoration="none" x="1462.693115234375" y="699.5">MixerChannel</text></g></g><g transform="translate(-346,-101) scale(1,1)"><g><path fill="none" stroke="none"/><text fill="#000000" stroke="none" font-family="Arial" font-size="13px" font-style="normal" font-weight="normal" text-decoration="none" x="1467.771240234375" y="714.5">(from Mixer)</text></g></g><g transform="translate(-346,-101) scale(1,1)"><path fill="none" stroke="#000000" d="M 504 680 L 835 505" stroke-miterlimit="10"/></g><g transform="translate(-346,-101) scale(1,1)"><path fill="#FFFFFF" stroke="none" d="M 827.9832263132834 513.4714158810319 L 835 505 L 824.0481961283422 506.02858735980044 L 815.5509518004666 515.2827294106295"/></g><g transform="translate(-346,-101) scale(1,1)"><path fill="none" stroke="#000000" d="M 827.9832263132834 513.4714158810319 L 835 505 L 824.0481961283422 506.02858735980044 L 815.5509518004666 515.2827294106295 L 827.9832263132834 513.4714158810319" stroke-miterlimit="10"/></g><g transform="translate(-346,-101) scale(1,1)"><g><path fill="none" stroke="none"/><text fill="#000000" stroke="none" font-family="Arial" font-size="13px" font-style="normal" font-weight="normal" text-decoration="none" x="766.5" y="556.5">-leftChannel</text></g></g><g transform="translate(-346,-101) scale(1,1)"><path fill="none" stroke="#000000" d="M 1462 679 L 1128 505" stroke-miterlimit="10"/></g><g transform="translate(-346,-101) scale(1,1)"><path fill="#FFFFFF" stroke="none" d="M 1138.957846249744 505.9620839708504 L 1128 505 L 1135.0680712905346 513.4286634902529 L 1147.5111125487115 515.1644718068138"/></g><g transform="translate(-346,-101) scale(1,1)"><path fill="none" stroke="#000000" d="M 1138.957846249744 505.9620839708504 L 1128 505 L 1135.0680712905346 513.4286634902529 L 1147.5111125487115 515.1644718068138 L 1138.957846249744 505.9620839708504" stroke-miterlimit="10"/></g><g transform="translate(-346,-101) scale(1,1)"><g><path fill="none" stroke="none"/><text fill="#000000" stroke="none" font-family="Arial" font-size="13px" font-style="normal" font-weight="normal" text-decoration="none" x="1141.5" y="564.5">-rightChannel</text></g></g><g transform="translate(-346,-101) scale(1,1)"><rect fill="#C0C0C0" stroke="none" x="363" y="352" width="221.5888671875" height="39" opacity="0.2"/></g><g transform="translate(-346,-101) scale(1,1)"><rect fill="#ffffff" stroke="none" x="356" y="345" width="221.5888671875" height="39"/></g><g transform="translate(-346,-101) scale(1,1)"><path fill="none" stroke="#000000" d="M 356 345 L 577.5888671875 345 L 577.5888671875 384 L 356 384 L 356 345 Z Z" stroke-miterlimit="10"/></g><g transform="translate(-346,-101) scale(1,1)"><g><path fill="none" stroke="none"/><text fill="#000000" stroke="none" font-family="Arial" font-size="13px" font-style="normal" font-weight="bold" text-decoration="none" x="431.745849609375" y="364.5">AudioPlayer</text></g></g><g transform="translate(-346,-101) scale(1,1)"><g><path fill="none" stroke="none"/><text fill="#000000" stroke="none" font-family="Arial" font-size="13px" font-style="normal" font-weight="normal" text-decoration="none" x="429.2353515625" y="379.5">(from Player)</text></g></g><g transform="translate(-346,-101) scale(1,1)"><rect fill="#C0C0C0" stroke="none" x="1399" y="351" width="221.5888671875" height="40" opacity="0.2"/></g><g transform="translate(-346,-101) scale(1,1)"><rect fill="#ffffff" stroke="none" x="1392" y="344" width="221.5888671875" height="40"/></g><g transform="translate(-346,-101) scale(1,1)"><path fill="none" stroke="#000000" d="M 1392 344 L 1613.5888671875 344 L 1613.5888671875 384 L 1392 384 L 1392 344 Z Z" stroke-miterlimit="10"/></g><g transform="translate(-346,-101) scale(1,1)"><g><path fill="none" stroke="none"/><text fill="#000000" stroke="none" font-family="Arial" font-size="13px" font-style="normal" font-weight="bold" text-decoration="none" x="1467.745849609375" y="363.5">AudioPlayer</text></g></g><g transform="translate(-346,-101) scale(1,1)"><g><path fill="none" stroke="none"/><text fill="#000000" stroke="none" font-family="Arial" font-size="13px" font-style="normal" font-weight="normal" text-decoration="none" x="1465.2353515625" y="378.5">(from Player)</text></g></g><g transform="translate(-346,-101) scale(1,1)"><path fill="none" stroke="#000000" d="M 579 378 L 730 397" stroke-miterlimit="10"/></g><g transform="translate(-346,-101) scale(1,1)"><path fill="#FFFFFF" stroke="none" d="M 719.3913027514294 399.9078415858107 L 730 397 L 720.4423637320376 391.5546727399236 L 708.1721178932096 394.2534452978211"/></g><g transform="translate(-346,-101) scale(1,1)"><path fill="none" stroke="#000000" d="M 719.3913027514294 399.9078415858107 L 730 397 L 720.4423637320376 391.5546727399236 L 708.1721178932096 394.2534452978211 L 719.3913027514294 399.9078415858107" stroke-miterlimit="10"/></g><g transform="translate(-346,-101) scale(1,1)"><g><path fill="none" stroke="none"/><text fill="#000000" stroke="none" font-family="Arial" font-size="13px" font-style="normal" font-weight="normal" text-decoration="none" x="654.5" y="379.5">-leftPlayer</text></g></g><g transform="translate(-346,-101) scale(1,1)"><path fill="none" stroke="#000000" d="M 1391 378 L 1233 397" stroke-miterlimit="10"/></g><g transform="translate(-346,-101) scale(1,1)"><path fill="#FFFFFF" stroke="none" d="M 1242.5873950253713 391.6072403514078 L 1233 397 L 1243.592568953183 399.96605511952555 L 1254.8426356125688 394.373353945324"/></g><g transform="translate(-346,-101) scale(1,1)"><path fill="none" stroke="#000000" d="M 1242.5873950253713 391.6072403514078 L 1233 397 L 1243.592568953183 399.96605511952555 L 1254.8426356125688 394.373353945324 L 1242.5873950253713 391.6072403514078" stroke-miterlimit="10"/></g><g transform="translate(-346,-101) scale(1,1)"><g><path fill="none" stroke="none"/><text fill="#000000" stroke="none" font-family="Arial" font-size="13px" font-style="normal" font-weight="normal" text-decoration="none" x="1246.5" y="379.5">-rightPlayer</text></g></g><g transform="translate(-346,-101) scale(1,1)"><rect fill="#C0C0C0" stroke="none" x="363" y="199" width="221.5888671875" height="39" opacity="0.2"/></g><g transform="translate(-346,-101) scale(1,1)"><rect fill="#ffffff" stroke="none" x="356" y="192" width="221.5888671875" height="39"/></g><g transform="translate(-346,-101) scale(1,1)"><path fill="none" stroke="#000000" d="M 356 192 L 577.5888671875 192 L 577.5888671875 231 L 356 231 L 356 192 Z Z" stroke-miterlimit="10"/></g><g transform="translate(-346,-101) scale(1,1)"><g><path fill="none" stroke="none"/><text fill="#000000" stroke="none" font-family="Arial" font-size="13px" font-style="normal" font-weight="bold" text-decoration="none" x="384.77001953125" y="211.5">PlayerAggregateComponent</text></g></g><g transform="translate(-346,-101) scale(1,1)"><g><path fill="none" stroke="none"/><text fill="#000000" stroke="none" font-family="Arial" font-size="13px" font-style="normal" font-weight="normal" text-decoration="none" x="429.2353515625" y="226.5">(from Player)</text></g></g><g transform="translate(-346,-101) scale(1,1)"><path fill="none" stroke="#000000" d="M 466 344 L 466 232" stroke-miterlimit="10"/></g><g transform="translate(-346,-101) scale(1,1)"><path fill="#000000" stroke="none" d="M 470.209517756016 242.16267485762415 L 466 232 L 461.790482243984 242.16267485762415 L 466 254"/></g><g transform="translate(-346,-101) scale(1,1)"><path fill="none" stroke="#000000" d="M 470.209517756016 242.16267485762415 L 466 232 L 461.790482243984 242.16267485762415 L 466 254 L 470.209517756016 242.16267485762415" stroke-miterlimit="10"/></g><g transform="translate(-346,-101) scale(1,1)"><g><path fill="none" stroke="none"/><text fill="#000000" stroke="none" font-family="Arial" font-size="13px" font-style="normal" font-weight="normal" text-decoration="none" x="469.5" y="292.5">-audioPlayer</text></g></g><g transform="translate(-346,-101) scale(1,1)"><path fill="none" stroke="#000000" d="M 516 232 L 798 351" stroke-miterlimit="10"/></g><g transform="translate(-346,-101) scale(1,1)"><path fill="#FFFFFF" stroke="none" d="M 787.0002407244333 350.92722720574216 L 798 351 L 790.2734537611327 343.1705374885215 L 777.7307929708843 342.44668214019583"/></g><g transform="translate(-346,-101) scale(1,1)"><path fill="none" stroke="#000000" d="M 787.0002407244333 350.92722720574216 L 798 351 L 790.2734537611327 343.1705374885215 L 777.7307929708843 342.44668214019583 L 787.0002407244333 350.92722720574216" stroke-miterlimit="10"/></g><g transform="translate(-346,-101) scale(1,1)"><g><path fill="none" stroke="none"/><text fill="#000000" stroke="none" font-family="Arial" font-size="13px" font-style="normal" font-weight="normal" text-decoration="none" x="576.66455078125" y="332.5">-leftPlayerComponent</text></g></g><g transform="translate(-346,-101) scale(1,1)"><rect fill="#C0C0C0" stroke="none" x="1399" y="198" width="221.5888671875" height="40" opacity="0.2"/></g><g transform="translate(-346,-101) scale(1,1)"><rect fill="#ffffff" stroke="none" x="1392" y="191" width="221.5888671875" height="40"/></g><g transform="translate(-346,-101) scale(1,1)"><path fill="none" stroke="#000000" d="M 1392 191 L 1613.5888671875 191 L 1613.5888671875 231 L 1392 231 L 1392 191 Z Z" stroke-miterlimit="10"/></g><g transform="translate(-346,-101) scale(1,1)"><g><path fill="none" stroke="none"/><text fill="#000000" stroke="none" font-family="Arial" font-size="13px" font-style="normal" font-weight="bold" text-decoration="none" x="1420.77001953125" y="210.5">PlayerAggregateComponent</text></g></g><g transform="translate(-346,-101) scale(1,1)"><g><path fill="none" stroke="none"/><text fill="#000000" stroke="none" font-family="Arial" font-size="13px" font-style="normal" font-weight="normal" text-decoration="none" x="1465.2353515625" y="225.5">(from Player)</text></g></g><g transform="translate(-346,-101) scale(1,1)"><path fill="none" stroke="#000000" d="M 1502 343 L 1502 232" stroke-miterlimit="10"/></g><g transform="translate(-346,-101) scale(1,1)"><path fill="#000000" stroke="none" d="M 1506.2095177560159 242.16267485762415 L 1502 232 L 1497.7904822439841 242.16267485762415 L 1502 254"/></g><g transform="translate(-346,-101) scale(1,1)"><path fill="none" stroke="#000000" d="M 1506.2095177560159 242.16267485762415 L 1502 232 L 1497.7904822439841 242.16267485762415 L 1502 254 L 1506.2095177560159 242.16267485762415" stroke-miterlimit="10"/></g><g transform="translate(-346,-101) scale(1,1)"><g><path fill="none" stroke="none"/><text fill="#000000" stroke="none" font-family="Arial" font-size="13px" font-style="normal" font-weight="normal" text-decoration="none" x="1421.5" y="292.5">-audioPlayer</text></g></g><g transform="translate(-346,-101) scale(1,1)"><path fill="none" stroke="#000000" d="M 1452 232 L 1166 351" stroke-miterlimit="10"/></g><g transform="translate(-346,-101) scale(1,1)"><path fill="#FFFFFF" stroke="none" d="M 1173.7657554743596 343.2094260858102 L 1166 351 L 1176.9999860010148 350.9824507128976 L 1186.3118922056487 342.5485483479993"/></g><g transform="translate(-346,-101) scale(1,1)"><path fill="none" stroke="#000000" d="M 1173.7657554743596 343.2094260858102 L 1166 351 L 1176.9999860010148 350.9824507128976 L 1186.3118922056487 342.5485483479993 L 1173.7657554743596 343.2094260858102" stroke-miterlimit="10"/></g><g transform="translate(-346,-101) scale(1,1)"><g><path fill="none" stroke="none"/><text fill="#000000" stroke="none" font-family="Arial" font-size="13px" font-style="normal" font-weight="normal" text-decoration="none" x="1256.66455078125" y="331.5">-leftPlayerComponent</text></g></g><g transform="translate(-346,-101) scale(1,1)"><rect fill="#C0C0C0" stroke="none" x="1399" y="118" width="221.5888671875" height="40" opacity="0.2"/></g><g transform="translate(-346,-101) scale(1,1)"><rect fill="#ffffff" stroke="none" x="1392" y="111" width="221.5888671875" height="40"/></g><g transform="translate(-346,-101) scale(1,1)"><path fill="none" stroke="#000000" d="M 1392 111 L 1613.5888671875 111 L 1613.5888671875 151 L 1392 151 L 1392 111 Z Z" stroke-miterlimit="10"/></g><g transform="translate(-346,-101) scale(1,1)"><g><path fill="none" stroke="none"/><text fill="#000000" stroke="none" font-family="Arial" font-size="13px" font-style="normal" font-weight="bold" text-decoration="none" x="1418.60546875" y="130.5">PlaylistAggregateComponent</text></g></g><g transform="translate(-346,-101) scale(1,1)"><g><path fill="none" stroke="none"/><text fill="#000000" stroke="none" font-family="Arial" font-size="13px" font-style="normal" font-weight="normal" text-decoration="none" x="1463.07080078125" y="145.5">(from Playlist)</text></g></g><g transform="translate(-346,-101) scale(1,1)"><rect fill="#C0C0C0" stroke="none" x="363" y="119" width="221.5888671875" height="39" opacity="0.2"/></g><g transform="translate(-346,-101) scale(1,1)"><rect fill="#ffffff" stroke="none" x="356" y="112" width="221.5888671875" height="39"/></g><g transform="translate(-346,-101) scale(1,1)"><path fill="none" stroke="#000000" d="M 356 112 L 577.5888671875 112 L 577.5888671875 151 L 356 151 L 356 112 Z Z" stroke-miterlimit="10"/></g><g transform="translate(-346,-101) scale(1,1)"><g><path fill="none" stroke="none"/><text fill="#000000" stroke="none" font-family="Arial" font-size="13px" font-style="normal" font-weight="bold" text-decoration="none" x="382.60546875" y="131.5">PlaylistAggregateComponent</text></g></g><g transform="translate(-346,-101) scale(1,1)"><g><path fill="none" stroke="none"/><text fill="#000000" stroke="none" font-family="Arial" font-size="13px" font-style="normal" font-weight="normal" text-decoration="none" x="427.07080078125" y="146.5">(from Playlist)</text></g></g><g transform="translate(-346,-101) scale(1,1)"><rect fill="#C0C0C0" stroke="none" x="363" y="456" width="221.5888671875" height="39" opacity="0.2"/></g><g transform="translate(-346,-101) scale(1,1)"><rect fill="#ffffff" stroke="none" x="356" y="449" width="221.5888671875" height="39"/></g><g transform="translate(-346,-101) scale(1,1)"><path fill="none" stroke="#000000" d="M 356 449 L 577.5888671875 449 L 577.5888671875 488 L 356 488 L 356 449 Z Z" stroke-miterlimit="10"/></g><g transform="translate(-346,-101) scale(1,1)"><g><path fill="none" stroke="none"/><text fill="#000000" stroke="none" font-family="Arial" font-size="13px" font-style="normal" font-weight="bold" text-decoration="none" x="451.25537109375" y="468.5">Level</text></g></g><g transform="translate(-346,-101) scale(1,1)"><g><path fill="none" stroke="none"/><text fill="#000000" stroke="none" font-family="Arial" font-size="13px" font-style="normal" font-weight="normal" text-decoration="none" x="431.771240234375" y="483.5">(from Mixer)</text></g></g><g transform="translate(-346,-101) scale(1,1)"><path fill="none" stroke="#000000" d="M 466 489 L 466 600" stroke-miterlimit="10"/></g><g transform="translate(-346,-101) scale(1,1)"><path fill="#FFFFFF" stroke="none" d="M 461.790482243984 589.8373251423759 L 466 600 L 470.209517756016 589.8373251423759 L 466 578"/></g><g transform="translate(-346,-101) scale(1,1)"><path fill="none" stroke="#000000" d="M 461.790482243984 589.8373251423759 L 466 600 L 470.209517756016 589.8373251423759 L 466 578 L 461.790482243984 589.8373251423759" stroke-miterlimit="10"/></g><g transform="translate(-346,-101) scale(1,1)"><g><path fill="none" stroke="none"/><text fill="#000000" stroke="none" font-family="Arial" font-size="13px" font-style="normal" font-weight="normal" text-decoration="none" x="471.5" y="549.5">-level</text></g></g><g transform="translate(-346,-101) scale(1,1)"><rect fill="#C0C0C0" stroke="none" x="1399" y="455" width="221.5888671875" height="40" opacity="0.2"/></g><g transform="translate(-346,-101) scale(1,1)"><rect fill="#ffffff" stroke="none" x="1392" y="448" width="221.5888671875" height="40"/></g><g transform="translate(-346,-101) scale(1,1)"><path fill="none" stroke="#000000" d="M 1392 448 L 1613.5888671875 448 L 1613.5888671875 488 L 1392 488 L 1392 448 Z Z" stroke-miterlimit="10"/></g><g transform="translate(-346,-101) scale(1,1)"><g><path fill="none" stroke="none"/><text fill="#000000" stroke="none" font-family="Arial" font-size="13px" font-style="normal" font-weight="bold" text-decoration="none" x="1487.25537109375" y="467.5">Level</text></g></g><g transform="translate(-346,-101) scale(1,1)"><g><path fill="none" stroke="none"/><text fill="#000000" stroke="none" font-family="Arial" font-size="13px" font-style="normal" font-weight="normal" text-decoration="none" x="1467.771240234375" y="482.5">(from Mixer)</text></g></g><g transform="translate(-346,-101) scale(1,1)"><path fill="none" stroke="#000000" d="M 1502 489 L 1502 599" stroke-miterlimit="10"/></g><g transform="translate(-346,-101) scale(1,1)"><path fill="#FFFFFF" stroke="none" d="M 1497.7904822439841 588.8373251423759 L 1502 599 L 1506.2095177560159 588.8373251423759 L 1502 577"/></g><g transform="translate(-346,-101) scale(1,1)"><path fill="none" stroke="#000000" d="M 1497.7904822439841 588.8373251423759 L 1502 599 L 1506.2095177560159 588.8373251423759 L 1502 577 L 1497.7904822439841 588.8373251423759" stroke-miterlimit="10"/></g><g transform="translate(-346,-101) scale(1,1)"><g><path fill="none" stroke="none"/><text fill="#000000" stroke="none" font-family="Arial" font-size="13px" font-style="normal" font-weight="normal" text-decoration="none" x="1463.5" y="547.5">-level</text></g></g><g transform="translate(-346,-101) scale(1,1)"><path fill="none" stroke="#000000" d="M 579 459 L 730 447" stroke-miterlimit="10"/></g><g transform="translate(-346,-101) scale(1,1)"><path fill="#FFFFFF" stroke="none" d="M 720.2027450052015 452.001379266452 L 730 447 L 719.5357853615702 443.6088037507582 L 708.0691433025326 448.7428495388716"/></g><g transform="translate(-346,-101) scale(1,1)"><path fill="none" stroke="#000000" d="M 720.2027450052015 452.001379266452 L 730 447 L 719.5357853615702 443.6088037507582 L 708.0691433025326 448.7428495388716 L 720.2027450052015 452.001379266452" stroke-miterlimit="10"/></g><g transform="translate(-346,-101) scale(1,1)"><g><path fill="none" stroke="none"/><text fill="#000000" stroke="none" font-family="Arial" font-size="13px" font-style="normal" font-weight="normal" text-decoration="none" x="638.5" y="444.5">-leftLevel</text></g></g><g transform="translate(-346,-101) scale(1,1)"><path fill="none" stroke="#000000" d="M 1391 459 L 1233 447" stroke-miterlimit="10"/></g><g transform="translate(-346,-101) scale(1,1)"><path fill="#FFFFFF" stroke="none" d="M 1243.4522824312087 443.5722030430253 L 1233 447 L 1242.814698258792 451.9670613131773 L 1254.9368218223335 448.6660877333418"/></g><g transform="translate(-346,-101) scale(1,1)"><path fill="none" stroke="#000000" d="M 1243.4522824312087 443.5722030430253 L 1233 447 L 1242.814698258792 451.9670613131773 L 1254.9368218223335 448.6660877333418 L 1243.4522824312087 443.5722030430253" stroke-miterlimit="10"/></g><g transform="translate(-346,-101) scale(1,1)"><g><path fill="none" stroke="none"/><text fill="#000000" stroke="none" font-family="Arial" font-size="13px" font-style="normal" font-weight="normal" text-decoration="none" x="1278.5" y="443.5">-rightLevel</text></g></g></g></svg>